<?xml version="1.0" encoding="UTF-8" standalone="no"?>
<svg xmlns="http://www.w3.org/2000/svg" viewBox="0 0 1400 310">
    <path fill="#4285f4" d="m 120.73729,108.76786 h 113.00935 c 0.64424,2.57499 1.18045,5.68818 1.61061,9.33658 0.42916,3.6494 0.64325,7.2978 0.64325,10.9472 0,14.81067 -2.25386,28.76203 -6.7606,41.85505 -4.50772,13.09402 -11.59144,24.79151 -21.25014,35.09446 -10.30295,10.94719 -22.64469,19.42545 -37.0262,25.43575 -14.38151,6.00931 -30.80082,9.01446 -49.26089,9.01446 -16.74242,0 -32.518471,-3.00515 -47.329148,-9.01446 C 59.563836,225.4266 46.6849,217.05539 35.737705,206.32327 24.791502,195.59115 16.098171,182.87377 9.6587027,168.17014 3.2192347,153.4675 -3.7030802e-6,137.42285 -3.7030802e-6,120.03618 -3.7030802e-6,102.65051 3.2192347,86.605859 9.6587027,71.902226 16.098171,57.199583 24.791502,44.481213 35.737705,33.749097 46.6849,23.016981 59.563836,14.645771 74.373522,8.6364602 89.184199,2.626158 104.96025,-0.37899314 121.70267,-0.37899314 c 18.67416,0 35.36306,3.21923844 50.0657,9.65870634 C 186.472,15.719181 199.08234,24.6266 209.59938,36.00296 L 179.65689,65.302192 C 172.14401,57.360149 163.7728,51.296325 154.54326,47.11072 c -9.22954,-4.185604 -20.28378,-6.277911 -33.16271,-6.277911 -10.51704,0 -20.49787,1.878219 -29.942487,5.634658 -9.444619,3.755448 -17.707794,9.067984 -24.791506,15.936618 -7.082721,6.868634 -12.717379,15.186321 -16.902984,24.953062 -4.185605,9.76575 -6.278902,20.659423 -6.278902,32.679033 0,12.02061 2.093297,22.91329 6.278902,32.68003 4.185605,9.76575 9.873785,18.08344 17.064541,24.95207 7.189764,6.86864 15.507452,12.18117 24.952071,15.93761 9.444615,3.75644 19.532495,5.63367 30.264605,5.63367 12.23469,0 22.59117,-1.77019 31.06942,-5.31155 8.47924,-3.54235 15.72253,-8.1036 21.73283,-13.68374 4.29265,-3.86349 7.99557,-8.74686 11.10776,-14.65011 3.1122,-5.90227 5.52762,-12.50231 7.24428,-19.8001 h -72.44179 z" />
    <path fill="#ea4335" d="m 332.06622,72.392843 c 12.23469,0 23.45049,2.093297 33.6454,6.278902 10.19591,4.185605 18.99629,9.980829 26.40212,17.385672 7.40484,7.405833 13.20007,16.259733 17.38567,26.562683 4.18561,10.30295 6.27791,21.57127 6.27791,33.80597 0,12.23469 -2.0923,23.504 -6.27791,33.80695 -4.1856,10.30296 -9.98083,19.15685 -17.38567,26.5617 -7.40583,7.40583 -16.20621,13.20105 -26.40212,17.38666 -10.19491,4.1856 -21.41071,6.27791 -33.6454,6.27791 -12.23469,0 -23.44949,-2.09231 -33.6454,-6.27791 -10.19492,-4.18561 -18.99529,-9.98083 -26.40113,-17.38666 -7.40484,-7.40485 -13.20006,-16.25874 -17.38567,-26.5617 -4.1856,-10.30295 -6.2789,-21.57226 -6.2789,-33.80695 0,-12.2347 2.0933,-23.50302 6.2789,-33.80597 4.18561,-10.30295 9.98083,-19.15685 17.38567,-26.562683 7.40584,-7.404843 16.20621,-13.200067 26.40113,-17.385672 10.19591,-4.185605 21.41071,-6.278902 33.6454,-6.278902 z m 0,129.108507 c 5.36606,0 10.57155,-1.0189 15.61549,-3.05867 5.04493,-2.03879 9.49814,-4.99042 13.36162,-8.8539 3.86348,-3.86348 6.92216,-8.5853 9.17602,-14.16643 2.25386,-5.58114 3.3808,-11.91257 3.3808,-18.99628 0,-7.08273 -1.12694,-13.41515 -3.3808,-18.99529 -2.25386,-5.58114 -5.31254,-10.30296 -9.17602,-14.16644 -3.86348,-3.86447 -8.31669,-6.81511 -13.36162,-8.85489 -5.04394,-2.03878 -10.24943,-3.05867 -15.61549,-3.05867 -5.58014,0 -10.83916,1.01989 -15.77605,3.05867 -4.93689,2.03978 -9.33658,4.99042 -13.20007,8.85489 -3.86447,3.86348 -6.92314,8.5853 -9.17602,14.16644 -2.25386,5.58014 -3.38079,11.91256 -3.38079,18.99529 0,7.08371 1.12693,13.41514 3.38079,18.99628 2.25288,5.58113 5.31155,10.30295 9.17602,14.16643 3.86349,3.86348 8.26318,6.81511 13.20007,8.8539 4.93689,2.03977 10.19591,3.05867 15.77605,3.05867 z" />
    <path fill="#fbbc05" d="m 513.55475,72.392843 c 12.23469,0 23.4495,2.093297 33.6454,6.278902 10.19492,4.185605 18.9953,9.980829 26.40113,17.385672 7.40484,7.405833 13.20007,16.259733 17.38567,26.562683 4.18561,10.30295 6.2789,21.57127 6.2789,33.80597 0,12.23469 -2.09329,23.504 -6.2789,33.80695 -4.1856,10.30296 -9.98083,19.15685 -17.38567,26.5617 -7.40583,7.40583 -16.20621,13.20105 -26.40113,17.38666 -10.1959,4.1856 -21.41071,6.27791 -33.6454,6.27791 -12.23469,0 -23.45048,-2.09231 -33.6454,-6.27791 -10.19591,-4.18561 -18.99628,-9.98083 -26.40113,-17.38666 -7.40583,-7.40485 -13.20105,-16.25874 -17.38666,-26.5617 -4.1856,-10.30295 -6.27791,-21.57226 -6.27791,-33.80695 0,-12.2347 2.09231,-23.50302 6.27791,-33.80597 4.18561,-10.30295 9.98083,-19.15685 17.38666,-26.562683 7.40485,-7.404843 16.20522,-13.200067 26.40113,-17.385672 10.19492,-4.185605 21.41071,-6.278902 33.6454,-6.278902 z m 0,129.108507 c 5.36606,0 10.57056,-1.0189 15.61549,-3.05867 5.04393,-2.03879 9.49715,-4.99042 13.36162,-8.8539 3.86348,-3.86348 6.92216,-8.5853 9.17602,-14.16643 2.25287,-5.58114 3.3798,-11.91257 3.3798,-18.99628 0,-7.08273 -1.12693,-13.41515 -3.3798,-18.99529 -2.25386,-5.58114 -5.31254,-10.30296 -9.17602,-14.16644 -3.86447,-3.86447 -8.31769,-6.81511 -13.36162,-8.85489 -5.04493,-2.03878 -10.24943,-3.05867 -15.61549,-3.05867 -5.58113,0 -10.84015,1.01989 -15.77704,3.05867 -4.9359,2.03978 -9.33659,4.99042 -13.20007,8.85489 -3.86348,3.86348 -6.92215,8.5853 -9.17602,14.16644 -2.25386,5.58014 -3.38079,11.91256 -3.38079,18.99529 0,7.08371 1.12693,13.41514 3.38079,18.99628 2.25387,5.58113 5.31254,10.30295 9.17602,14.16643 3.86348,3.86348 8.26417,6.81511 13.20007,8.8539 4.93689,2.03977 10.19591,3.05867 15.77704,3.05867 z" />
    <path fill="#4285f4" d="m 695.04626,72.392843 c 12.23469,0 23.44949,2.093297 33.6454,6.278902 10.1959,4.185605 18.99628,9.980829 26.40112,17.385672 7.40584,7.405833 13.20106,16.259733 17.38667,26.562683 4.1856,10.30295 6.27791,21.57127 6.27791,33.80597 0,12.23469 -2.09231,23.504 -6.27791,33.80695 -4.18561,10.30296 -9.98083,19.15685 -17.38667,26.5617 -7.40484,7.40583 -16.20522,13.20105 -26.40112,17.38666 -10.19591,4.1856 -21.41071,6.27791 -33.6454,6.27791 -12.2347,0 -23.4495,-2.09231 -33.64541,-6.27791 -10.1959,-4.18561 -18.99628,-9.98083 -26.40112,-17.38666 -7.40485,-7.40485 -13.20106,-16.25874 -17.38666,-26.5617 -4.18561,-10.30295 -6.27792,-21.57226 -6.27792,-33.80695 0,-12.2347 2.09231,-23.50302 6.27792,-33.80597 4.1856,-10.30295 9.98181,-19.15685 17.38666,-26.562683 7.40484,-7.404843 16.20522,-13.200067 26.40112,-17.385672 10.19591,-4.185605 21.41071,-6.278902 33.64541,-6.278902 z m 0,129.108507 c 5.36605,0 10.57155,-1.0189 15.61548,-3.05867 5.04394,-2.03879 9.49814,-4.99042 13.36163,-8.8539 3.86348,-3.86348 6.92215,-8.5853 9.17601,-14.16643 2.25387,-5.58114 3.3808,-11.91257 3.3808,-18.99628 0,-7.08273 -1.12693,-13.41515 -3.3808,-18.99529 -2.25386,-5.58114 -5.31253,-10.30296 -9.17601,-14.16644 -3.86349,-3.86447 -8.31769,-6.81511 -13.36163,-8.85489 -5.04393,-2.03878 -10.24943,-3.05867 -15.61548,-3.05867 -5.58114,0 -10.83916,1.01989 -15.77606,3.05867 -4.93689,2.03978 -9.33757,4.99042 -13.20106,8.85489 -3.86348,3.86348 -6.92215,8.5853 -9.17601,14.16644 -2.25387,5.58014 -3.3808,11.91256 -3.3808,18.99529 0,7.08371 1.12693,13.41514 3.3808,18.99628 2.25386,5.58113 5.31253,10.30295 9.17601,14.16643 3.86349,3.86348 8.26417,6.81511 13.20106,8.8539 4.9369,2.03977 10.19492,3.05867 15.77606,3.05867 z" />
    <path fill="#34a853" d="m 876.53479,72.392843 c 12.23469,0 23.45048,2.093297 33.6454,6.278902 10.1959,4.185605 18.99628,9.980829 26.40112,17.385672 7.40584,7.405833 13.20106,16.259733 17.38666,26.562683 4.18561,10.30295 6.27792,21.57127 6.27792,33.80597 0,12.23469 -2.09231,23.504 -6.27792,33.80695 -4.1856,10.30296 -9.98082,19.15685 -17.38666,26.5617 -7.40484,7.40583 -16.20522,13.20105 -26.40112,17.38666 -10.19492,4.1856 -21.41071,6.27791 -33.6454,6.27791 -12.2347,0 -23.4495,-2.09231 -33.64541,-6.27791 -10.19491,-4.18561 -18.99529,-9.98083 -26.40112,-17.38666 -7.40485,-7.40485 -13.20007,-16.25874 -17.38567,-26.5617 -4.18561,-10.30295 -6.27891,-21.57226 -6.27891,-33.80695 0,-12.2347 2.0933,-23.50302 6.27891,-33.80597 4.1856,-10.30295 9.98082,-19.15685 17.38567,-26.562683 7.40583,-7.404843 16.20621,-13.200067 26.40112,-17.385672 10.19591,-4.185605 21.41071,-6.278902 33.64541,-6.278902 z m 0,129.108507 c 5.36605,0 10.57155,-1.0189 15.61548,-3.05867 5.04394,-2.03879 9.49814,-4.99042 13.36163,-8.8539 3.86348,-3.86348 6.92215,-8.5853 9.17601,-14.16643 2.25387,-5.58114 3.3808,-11.91257 3.3808,-18.99628 0,-7.08273 -1.12693,-13.41515 -3.3808,-18.99529 -2.25386,-5.58114 -5.31253,-10.30296 -9.17601,-14.16644 -3.86349,-3.86447 -8.31769,-6.81511 -13.36163,-8.85489 -5.04393,-2.03878 -10.24943,-3.05867 -15.61548,-3.05867 -5.58015,0 -10.83916,1.01989 -15.77606,3.05867 -4.93689,2.03978 -9.33658,4.99042 -13.20006,8.85489 -3.86448,3.86348 -6.92315,8.5853 -9.17701,14.16644 -2.25288,5.58014 -3.37981,11.91256 -3.37981,18.99529 0,7.08371 1.12693,13.41514 3.37981,18.99628 2.25386,5.58113 5.31253,10.30295 9.17701,14.16643 3.86348,3.86348 8.26317,6.81511 13.20006,8.8539 4.9369,2.03977 10.19591,3.05867 15.77606,3.05867 z" />
    <path fill="#4285f4" d="m 1056.0906,309.99999 c -11.1623,0 -21.0896,-1.44905 -29.7819,-4.34617 -8.6934,-2.8981 -16.2598,-6.65454 -22.6992,-11.26931 -6.4395,-4.61477 -11.80556,-9.71223 -16.09821,-15.29337 -4.29265,-5.58014 -7.40484,-11.16128 -9.33658,-16.74143 l 40.24539,-16.09916 c 3.0052,8.37121 7.9421,14.8642 14.8107,19.47897 6.8687,4.61477 14.4886,6.92314 22.8598,6.92314 13.3071,0 23.8251,-4.31841 31.5521,-12.95426 7.727,-8.63683 11.5904,-20.52363 11.5904,-35.66337 v -10.94621 h -2.575 c -4.9369,6.86864 -11.4298,12.28822 -19.4789,16.25874 -8.0491,3.97152 -17.5473,5.95678 -28.4945,5.95678 -9.4446,0 -18.6206,-1.9129 -27.528,-5.73773 -8.9074,-3.82483 -16.7959,-9.29793 -23.66458,-16.41733 -6.86864,-7.12038 -12.44878,-15.67594 -16.74242,-25.66668 -4.29265,-9.99173 -6.43848,-21.15004 -6.43848,-33.47493 0,-12.32885 2.14583,-23.54167 6.43848,-33.63747 4.29364,-10.09679 9.87378,-18.70588 16.74242,-25.82527 6.86868,-7.120385 14.75718,-12.593487 23.66458,-16.418315 8.9074,-3.824827 18.0834,-5.737737 27.528,-5.737737 10.9472,0 20.4454,1.986254 28.4945,5.95678 8.0491,3.970527 14.542,9.391098 19.4789,16.259731 h 2.575 v -17.06454 h 40.2465 V 224.03503 c 0,13.3081 -2.0398,25.27419 -6.1174,35.89926 -4.0785,10.62508 -9.7667,19.64053 -17.0645,27.04537 -7.2978,7.40485 -16.0447,13.09303 -26.2406,17.06454 -10.1949,3.97053 -21.5177,5.95579 -33.9665,5.95579 z m 1.6096,-112.68821 c 5.151,0 10.2494,-0.94753 15.2934,-2.84458 5.0439,-1.89606 9.4981,-4.68812 13.3616,-8.37617 3.8635,-3.68706 6.9757,-8.21857 9.3366,-13.59256 2.3609,-5.37498 3.5413,-11.5399 3.5413,-18.49575 0,-6.95288 -1.1804,-13.16835 -3.5413,-18.64938 -2.3609,-5.48004 -5.4731,-10.0631 -9.3366,-13.75115 -3.8635,-3.68706 -8.3177,-6.47911 -13.3616,-8.37616 -5.044,-1.89606 -10.1424,-2.84459 -15.2934,-2.84459 -5.152,0 -10.1959,0.94853 -15.1328,2.84459 -4.9369,1.89705 -9.3366,4.74163 -13.2001,8.53475 -3.8634,3.79311 -6.9766,8.37715 -9.3375,13.75114 -2.3609,5.37498 -3.5414,11.53792 -3.5414,18.4908 0,6.95585 1.1805,13.12077 3.5414,18.49575 2.3609,5.37399 5.4741,9.9055 9.3375,13.59256 3.8635,3.68805 8.2632,6.48011 13.2001,8.37617 4.9369,1.89705 9.9808,2.84458 15.1328,2.84458 z" />
    <rect fill="#fbbc05" x="1163.0253" y="4.776947" width="42.177177" height="230.5274" />
    <path fill="#ea4335" d="M 1290.8531,227.57639 1224.5287,77.539858 h 47.9724 l 39.9243,95.623672 h 2.2539 L 1352.993,77.539858 H 1400 l -98.8439,227.308162 h -45.3974 z" />
    <path fill="#000" d="m 695.04655,115.37671 c -7.70476,0 -14.28933,2.57589 -19.75312,7.72588 1.16916,-0.50341 2.44278,-0.76467 3.83098,-0.76467 2.56627,0 4.74153,0.86011 6.52371,2.58044 1.78218,1.72053 2.67342,3.82017 2.67342,6.29734 0,2.47727 -0.89124,4.59267 -2.67342,6.34749 -1.78218,1.75482 -3.95744,2.63278 -6.52371,2.63278 -2.56628,0 -4.75829,-0.87796 -6.57605,-2.63278 -1.81766,-1.75482 -2.72565,-3.87022 -2.72565,-6.34749 0,-0.37822 0.0287,-0.74484 0.0714,-1.10542 -1.90042,3.6039 -2.85915,7.5997 -2.85915,11.99444 0,7.45935 2.73675,13.83053 8.20985,19.11432 5.4731,5.2838 12.07462,7.9253 19.80158,7.9253 7.72697,0 14.27289,-2.6415 19.63894,-7.9253 5.36606,-5.28379 8.04919,-11.65497 8.04919,-19.11432 0,-7.45837 -2.68313,-13.7788 -8.04919,-18.95951 -5.36605,-5.17973 -11.91197,-7.7685 -19.63894,-7.7685 z m -181.49161,28.39174 c -7.70476,0 -14.28937,2.57589 -19.75321,7.72588 1.16921,-0.50341 2.44285,-0.76467 3.831,-0.76467 2.56626,0 4.7416,0.86011 6.52376,2.58044 1.78216,1.72053 2.67337,3.82017 2.67337,6.29734 0,2.47727 -0.89121,4.59267 -2.67337,6.34749 -1.78216,1.75482 -3.9575,2.63278 -6.52376,2.63278 -2.56626,0 -4.75829,-0.87796 -6.576,-2.63278 -1.81771,-1.75482 -2.72565,-3.87022 -2.72565,-6.34749 0,-0.37822 0.0292,-0.74484 0.0717,-1.10542 -1.90048,3.6039 -2.85922,7.5997 -2.85922,11.99444 0,7.45935 2.73675,13.83053 8.20985,19.11432 5.4731,5.2838 12.07464,7.9253 19.80161,7.9253 7.72697,0 14.27293,-2.6415 19.63899,-7.9253 5.36606,-5.28379 8.04918,-11.65497 8.04918,-19.11432 0,-7.45837 -2.68312,-13.7788 -8.04918,-18.95951 -5.36606,-5.17973 -11.91202,-7.7685 -19.63899,-7.7685 z" />
</svg>
